<?xml version="1.0" encoding="UTF-8"?>
<!DOCTYPE svg
PUBLIC "-//W3C//DTD SVG 1.1//EN"
       "http://www.w3.org/Graphics/SVG/1.1/DTD/svg11.dtd">
<svg viewBox="31 -10 1177 622" width="1146px" height="632px" xmlns="http://www.w3.org/2000/svg" version="1.1">
   <line x1="151" y1="105" x2="161" y2="105" style="stroke:#0bf;stroke-width:1;"/>
   <line x1="321" y1="381" x2="331" y2="381" style="stroke:#0bf;stroke-width:1;"/>
   <line x1="161" y1="105" x2="321" y2="381" style="stroke:#0bf;stroke-width:1;"/>
   <line x1="158.5" y1="105" x2="154.96446609407" y2="108.53553390593" style="stroke:#0bf;stroke-width:2;"/>
   <line x1="158.5" y1="105" x2="154.96446609407" y2="101.46446609407" style="stroke:#0bf;stroke-width:2;"/>
   <line x1="326" y1="381" x2="322.46446609407" y2="384.53553390593" style="stroke:#0bf;stroke-width:2;"/>
   <line x1="326" y1="381" x2="322.46446609407" y2="377.46446609407" style="stroke:#0bf;stroke-width:2;"/>
   <line x1="151" y1="125" x2="161" y2="125" style="stroke:#0b0;stroke-width:1;"/>
   <line x1="753" y1="35" x2="763" y2="35" style="stroke:#0b0;stroke-width:1;"/>
   <line x1="161" y1="125" x2="753" y2="35" style="stroke:#0b0;stroke-width:1;"/>
   <line x1="158.5" y1="125" x2="154.96446609407" y2="128.53553390593" style="stroke:#0b0;stroke-width:2;"/>
   <line x1="158.5" y1="125" x2="154.96446609407" y2="121.46446609407" style="stroke:#0b0;stroke-width:2;"/>
   <line x1="758" y1="35" x2="754.46446609407" y2="38.535533905933" style="stroke:#0b0;stroke-width:2;"/>
   <line x1="758" y1="35" x2="754.46446609407" y2="31.464466094067" style="stroke:#0b0;stroke-width:2;"/>
   <line x1="183" y1="300" x2="193" y2="300" style="stroke:#c00;stroke-width:1;"/>
   <line x1="502" y1="69" x2="512" y2="69" style="stroke:#c00;stroke-width:1;"/>
   <line x1="193" y1="300" x2="502" y2="69" style="stroke:#c00;stroke-width:1;"/>
   <line x1="190.5" y1="300" x2="186.96446609407" y2="303.53553390593" style="stroke:#c00;stroke-width:2;"/>
   <line x1="190.5" y1="300" x2="186.96446609407" y2="296.46446609407" style="stroke:#c00;stroke-width:2;"/>
   <line x1="507" y1="69" x2="503.46446609407" y2="72.535533905933" style="stroke:#c00;stroke-width:2;"/>
   <line x1="507" y1="69" x2="503.46446609407" y2="65.464466094067" style="stroke:#c00;stroke-width:2;"/>
   <line x1="183" y1="320" x2="193" y2="320" style="stroke:#333;stroke-width:1;"/>
   <line x1="753" y1="35" x2="763" y2="35" style="stroke:#333;stroke-width:1;"/>
   <line x1="193" y1="320" x2="753" y2="35" style="stroke:#333;stroke-width:1;"/>
   <line x1="190.5" y1="320" x2="186.96446609407" y2="323.53553390593" style="stroke:#333;stroke-width:2;"/>
   <line x1="190.5" y1="320" x2="186.96446609407" y2="316.46446609407" style="stroke:#333;stroke-width:2;"/>
   <line x1="758" y1="35" x2="754.46446609407" y2="38.535533905933" style="stroke:#333;stroke-width:2;"/>
   <line x1="758" y1="35" x2="754.46446609407" y2="31.464466094067" style="stroke:#333;stroke-width:2;"/>
   <line x1="1048" y1="315" x2="1038" y2="315" style="stroke:#cb0;stroke-width:1;"/>
   <line x1="161" y1="45" x2="151" y2="45" style="stroke:#cb0;stroke-width:1;"/>
   <line x1="1038" y1="315" x2="161" y2="45" style="stroke:#cb0;stroke-width:1;"/>
   <line x1="1040.5" y1="315" x2="1044.0355339059" y2="318.53553390593" style="stroke:#cb0;stroke-width:2;"/>
   <line x1="1040.5" y1="315" x2="1044.0355339059" y2="311.46446609407" style="stroke:#cb0;stroke-width:2;"/>
   <line x1="156" y1="45" x2="159.53553390593" y2="48.535533905933" style="stroke:#cb0;stroke-width:2;"/>
   <line x1="156" y1="45" x2="159.53553390593" y2="41.464466094067" style="stroke:#cb0;stroke-width:2;"/>
   <line x1="1048" y1="335" x2="1038" y2="335" style="stroke:#b0b;stroke-width:1;"/>
   <line x1="612" y1="69" x2="602" y2="69" style="stroke:#b0b;stroke-width:1;"/>
   <line x1="1038" y1="335" x2="612" y2="69" style="stroke:#b0b;stroke-width:1;"/>
   <line x1="1040.5" y1="335" x2="1044.0355339059" y2="338.53553390593" style="stroke:#b0b;stroke-width:2;"/>
   <line x1="1040.5" y1="335" x2="1044.0355339059" y2="331.46446609407" style="stroke:#b0b;stroke-width:2;"/>
   <line x1="607" y1="69" x2="610.53553390593" y2="72.535533905933" style="stroke:#b0b;stroke-width:2;"/>
   <line x1="607" y1="69" x2="610.53553390593" y2="65.464466094067" style="stroke:#b0b;stroke-width:2;"/>
   <line x1="1048" y1="355" x2="1038" y2="355" style="stroke:#0b0;stroke-width:1;"/>
   <line x1="1040" y1="96" x2="1050" y2="96" style="stroke:#0b0;stroke-width:1;"/>
   <line x1="1038" y1="355" x2="1040" y2="96" style="stroke:#0b0;stroke-width:1;"/>
   <line x1="1040.5" y1="355" x2="1044.0355339059" y2="358.53553390593" style="stroke:#0b0;stroke-width:2;"/>
   <line x1="1040.5" y1="355" x2="1044.0355339059" y2="351.46446609407" style="stroke:#0b0;stroke-width:2;"/>
   <line x1="1045" y1="96" x2="1041.4644660941" y2="99.535533905933" style="stroke:#0b0;stroke-width:2;"/>
   <line x1="1045" y1="96" x2="1041.4644660941" y2="92.464466094067" style="stroke:#0b0;stroke-width:2;"/>
   <line x1="1048" y1="375" x2="1038" y2="375" style="stroke:#b0b;stroke-width:1;"/>
   <line x1="1039" y1="527" x2="1049" y2="527" style="stroke:#b0b;stroke-width:1;"/>
   <line x1="1038" y1="375" x2="1039" y2="527" style="stroke:#b0b;stroke-width:1;"/>
   <line x1="1040.5" y1="375" x2="1044.0355339059" y2="378.53553390593" style="stroke:#b0b;stroke-width:2;"/>
   <line x1="1040.5" y1="375" x2="1044.0355339059" y2="371.46446609407" style="stroke:#b0b;stroke-width:2;"/>
   <line x1="1044" y1="527" x2="1040.4644660941" y2="530.53553390593" style="stroke:#b0b;stroke-width:2;"/>
   <line x1="1044" y1="527" x2="1040.4644660941" y2="523.46446609407" style="stroke:#b0b;stroke-width:2;"/>
   <line x1="550" y1="312" x2="540" y2="312" style="stroke:#333;stroke-width:1;"/>
   <line x1="502" y1="69" x2="512" y2="69" style="stroke:#333;stroke-width:1;"/>
   <line x1="540" y1="312" x2="502" y2="69" style="stroke:#333;stroke-width:1;"/>
   <line x1="542.5" y1="312" x2="546.03553390593" y2="315.53553390593" style="stroke:#333;stroke-width:2;"/>
   <line x1="542.5" y1="312" x2="546.03553390593" y2="308.46446609407" style="stroke:#333;stroke-width:2;"/>
   <line x1="507" y1="69" x2="503.46446609407" y2="72.535533905933" style="stroke:#333;stroke-width:2;"/>
   <line x1="507" y1="69" x2="503.46446609407" y2="65.464466094067" style="stroke:#333;stroke-width:2;"/>
   <line x1="692" y1="352" x2="702" y2="352" style="stroke:#cb0;stroke-width:1;"/>
   <line x1="753" y1="557" x2="763" y2="557" style="stroke:#cb0;stroke-width:1;"/>
   <line x1="702" y1="352" x2="753" y2="557" style="stroke:#cb0;stroke-width:1;"/>
   <line x1="699.5" y1="352" x2="695.96446609407" y2="355.53553390593" style="stroke:#cb0;stroke-width:2;"/>
   <line x1="699.5" y1="352" x2="695.96446609407" y2="348.46446609407" style="stroke:#cb0;stroke-width:2;"/>
   <line x1="758" y1="557" x2="754.46446609407" y2="560.53553390593" style="stroke:#cb0;stroke-width:2;"/>
   <line x1="758" y1="557" x2="754.46446609407" y2="553.46446609407" style="stroke:#cb0;stroke-width:2;"/>
   <line x1="290" y1="512" x2="300" y2="512" style="stroke:#c00;stroke-width:1;"/>
   <line x1="502" y1="69" x2="512" y2="69" style="stroke:#c00;stroke-width:1;"/>
   <line x1="300" y1="512" x2="502" y2="69" style="stroke:#c00;stroke-width:1;"/>
   <line x1="297.5" y1="512" x2="293.96446609407" y2="515.53553390593" style="stroke:#c00;stroke-width:2;"/>
   <line x1="297.5" y1="512" x2="293.96446609407" y2="508.46446609407" style="stroke:#c00;stroke-width:2;"/>
   <line x1="507" y1="69" x2="503.46446609407" y2="72.535533905933" style="stroke:#c00;stroke-width:2;"/>
   <line x1="507" y1="69" x2="503.46446609407" y2="65.464466094067" style="stroke:#c00;stroke-width:2;"/>
   <line x1="290" y1="532" x2="300" y2="532" style="stroke:#bbb;stroke-width:1;"/>
   <line x1="765" y1="378" x2="775" y2="378" style="stroke:#bbb;stroke-width:1;"/>
   <line x1="300" y1="532" x2="765" y2="378" style="stroke:#bbb;stroke-width:1;"/>
   <line x1="297.5" y1="532" x2="293.96446609407" y2="535.53553390593" style="stroke:#bbb;stroke-width:2;"/>
   <line x1="297.5" y1="532" x2="293.96446609407" y2="528.46446609407" style="stroke:#bbb;stroke-width:2;"/>
   <line x1="770" y1="378" x2="766.46446609407" y2="381.53553390593" style="stroke:#bbb;stroke-width:2;"/>
   <line x1="770" y1="378" x2="766.46446609407" y2="374.46446609407" style="stroke:#bbb;stroke-width:2;"/>
   <rect width="99" height="20" x="52" y="15" style="fill:#007;stroke:black;"/>
   <text width="99" height="20" x="57" y="29" style="fill:#fff;" font-family="Arial" font-size="16px"> accidente</text>
   <rect width="99" height="20" x="52" y="35" style="fill:#aea;stroke:black;"/>
   <text width="99" height="20" x="57" y="49" style="fill:black;" font-family="Arial" font-size="16px">ID_accidente</text>
   <rect width="99" height="20" x="52" y="55" style="fill:none;stroke:black;"/>
   <text width="99" height="20" x="57" y="69" style="fill:black;" font-family="Arial" font-size="16px">fecha</text>
   <rect width="99" height="20" x="52" y="75" style="fill:none;stroke:black;"/>
   <text width="99" height="20" x="57" y="89" style="fill:black;" font-family="Arial" font-size="16px">hora</text>
   <rect width="99" height="20" x="52" y="95" style="fill:none;stroke:black;"/>
   <text width="99" height="20" x="57" y="109" style="fill:black;" font-family="Arial" font-size="16px">ID_ubicacion</text>
   <rect width="99" height="20" x="52" y="115" style="fill:none;stroke:black;"/>
   <text width="99" height="20" x="57" y="129" style="fill:black;" font-family="Arial" font-size="16px">ID_causa</text>
   <rect width="99" height="20" x="52" y="135" style="fill:none;stroke:black;"/>
   <text width="99" height="20" x="57" y="149" style="fill:black;" font-family="Arial" font-size="16px">descripción</text>
   <rect width="73" height="20" x="763" y="5" style="fill:#007;stroke:black;"/>
   <text width="73" height="20" x="768" y="19" style="fill:#fff;" font-family="Arial" font-size="16px"> causa</text>
   <rect width="73" height="20" x="763" y="25" style="fill:#aea;stroke:black;"/>
   <text width="73" height="20" x="768" y="39" style="fill:black;" font-family="Arial" font-size="16px">ID_causa</text>
   <rect width="73" height="20" x="763" y="45" style="fill:none;stroke:black;"/>
   <text width="73" height="20" x="768" y="59" style="fill:black;" font-family="Arial" font-size="16px">nombre</text>
   <rect width="137" height="20" x="46" y="250" style="fill:#007;stroke:black;"/>
   <text width="137" height="20" x="51" y="264" style="fill:#fff;" font-family="Arial" font-size="16px"> causas_vehiculo</text>
   <rect width="137" height="20" x="46" y="270" style="fill:#aea;stroke:black;"/>
   <text width="137" height="20" x="51" y="284" style="fill:black;" font-family="Arial" font-size="16px">ID_causa_vehiculo</text>
   <rect width="137" height="20" x="46" y="290" style="fill:none;stroke:black;"/>
   <text width="137" height="20" x="51" y="304" style="fill:black;" font-family="Arial" font-size="16px">ID_vehiculo</text>
   <rect width="137" height="20" x="46" y="310" style="fill:none;stroke:black;"/>
   <text width="137" height="20" x="51" y="324" style="fill:black;" font-family="Arial" font-size="16px">ID_causa</text>
   <rect width="78" height="20" x="763" y="527" style="fill:#007;stroke:black;"/>
   <text width="78" height="20" x="768" y="541" style="fill:#fff;" font-family="Arial" font-size="16px"> cedula</text>
   <rect width="78" height="20" x="763" y="547" style="fill:#aea;stroke:black;"/>
   <text width="78" height="20" x="768" y="561" style="fill:black;" font-family="Arial" font-size="16px">ID_cedula</text>
   <rect width="78" height="20" x="763" y="567" style="fill:none;stroke:black;"/>
   <text width="78" height="20" x="768" y="581" style="fill:black;" font-family="Arial" font-size="16px">cedula</text>
   <rect width="78" height="20" x="763" y="587" style="fill:none;stroke:black;"/>
   <text width="78" height="20" x="768" y="601" style="fill:black;" font-family="Arial" font-size="16px">nombre</text>
   <rect width="77" height="20" x="1050" y="66" style="fill:#007;stroke:black;"/>
   <text width="77" height="20" x="1055" y="80" style="fill:#fff;" font-family="Arial" font-size="16px"> lesion</text>
   <rect width="77" height="20" x="1050" y="86" style="fill:#aea;stroke:black;"/>
   <text width="77" height="20" x="1055" y="100" style="fill:black;" font-family="Arial" font-size="16px">ID_lesion</text>
   <rect width="77" height="20" x="1050" y="106" style="fill:none;stroke:black;"/>
   <text width="77" height="20" x="1055" y="120" style="fill:black;" font-family="Arial" font-size="16px">tipo</text>
   <rect width="77" height="20" x="1050" y="126" style="fill:none;stroke:black;"/>
   <text width="77" height="20" x="1055" y="140" style="fill:black;" font-family="Arial" font-size="16px">gravedad</text>
   <rect width="114" height="20" x="1048" y="265" style="fill:#007;stroke:black;"/>
   <text width="114" height="20" x="1053" y="279" style="fill:#fff;" font-family="Arial" font-size="16px"> participantes</text>
   <rect width="114" height="20" x="1048" y="285" style="fill:#aea;stroke:black;"/>
   <text width="114" height="20" x="1053" y="299" style="fill:black;" font-family="Arial" font-size="16px">ID_participante</text>
   <rect width="114" height="20" x="1048" y="305" style="fill:none;stroke:black;"/>
   <text width="114" height="20" x="1053" y="319" style="fill:black;" font-family="Arial" font-size="16px">ID_accidente</text>
   <rect width="114" height="20" x="1048" y="325" style="fill:none;stroke:black;"/>
   <text width="114" height="20" x="1053" y="339" style="fill:black;" font-family="Arial" font-size="16px">ID_vehiculo</text>
   <rect width="114" height="20" x="1048" y="345" style="fill:none;stroke:black;"/>
   <text width="114" height="20" x="1053" y="359" style="fill:black;" font-family="Arial" font-size="16px">ID_lesion</text>
   <rect width="114" height="20" x="1048" y="365" style="fill:none;stroke:black;"/>
   <text width="114" height="20" x="1053" y="379" style="fill:black;" font-family="Arial" font-size="16px">ID_persona</text>
   <rect width="142" height="20" x="550" y="262" style="fill:#007;stroke:black;"/>
   <text width="142" height="20" x="555" y="276" style="fill:#fff;" font-family="Arial" font-size="16px"> pasajeros</text>
   <rect width="142" height="20" x="550" y="282" style="fill:#aea;stroke:black;"/>
   <text width="142" height="20" x="555" y="296" style="fill:black;" font-family="Arial" font-size="16px">ID_pasajero</text>
   <rect width="142" height="20" x="550" y="302" style="fill:none;stroke:black;"/>
   <text width="142" height="20" x="555" y="316" style="fill:black;" font-family="Arial" font-size="16px">ID_vehiculo</text>
   <rect width="142" height="20" x="550" y="322" style="fill:none;stroke:black;"/>
   <text width="142" height="20" x="555" y="336" style="fill:black;" font-family="Arial" font-size="16px">cantidad_personas</text>
   <rect width="142" height="20" x="550" y="342" style="fill:none;stroke:black;"/>
   <text width="142" height="20" x="555" y="356" style="fill:black;" font-family="Arial" font-size="16px">ID_cedula</text>
   <rect width="89" height="20" x="1049" y="497" style="fill:#007;stroke:black;"/>
   <text width="89" height="20" x="1054" y="511" style="fill:#fff;" font-family="Arial" font-size="16px"> persona</text>
   <rect width="89" height="20" x="1049" y="517" style="fill:#aea;stroke:black;"/>
   <text width="89" height="20" x="1054" y="531" style="fill:black;" font-family="Arial" font-size="16px">ID_persona</text>
   <rect width="89" height="20" x="1049" y="537" style="fill:none;stroke:black;"/>
   <text width="89" height="20" x="1054" y="551" style="fill:black;" font-family="Arial" font-size="16px">nombre</text>
   <rect width="89" height="20" x="1049" y="557" style="fill:none;stroke:black;"/>
   <text width="89" height="20" x="1054" y="571" style="fill:black;" font-family="Arial" font-size="16px">tipo</text>
   <rect width="80" height="20" x="775" y="348" style="fill:#007;stroke:black;"/>
   <text width="80" height="20" x="780" y="362" style="fill:#fff;" font-family="Arial" font-size="16px"> seguro</text>
   <rect width="80" height="20" x="775" y="368" style="fill:#aea;stroke:black;"/>
   <text width="80" height="20" x="780" y="382" style="fill:black;" font-family="Arial" font-size="16px">ID_seguro</text>
   <rect width="80" height="20" x="775" y="388" style="fill:none;stroke:black;"/>
   <text width="80" height="20" x="780" y="402" style="fill:black;" font-family="Arial" font-size="16px">tipo</text>
   <rect width="80" height="20" x="775" y="408" style="fill:none;stroke:black;"/>
   <text width="80" height="20" x="780" y="422" style="fill:black;" font-family="Arial" font-size="16px">cobertura</text>
   <rect width="80" height="20" x="775" y="428" style="fill:none;stroke:black;"/>
   <text width="80" height="20" x="780" y="442" style="fill:black;" font-family="Arial" font-size="16px">compañia</text>
   <rect width="144" height="20" x="146" y="462" style="fill:#007;stroke:black;"/>
   <text width="144" height="20" x="151" y="476" style="fill:#fff;" font-family="Arial" font-size="16px"> seguro_vehiculo</text>
   <rect width="144" height="20" x="146" y="482" style="fill:#aea;stroke:black;"/>
   <text width="144" height="20" x="151" y="496" style="fill:black;" font-family="Arial" font-size="16px">ID_seguro_vehiculo</text>
   <rect width="144" height="20" x="146" y="502" style="fill:none;stroke:black;"/>
   <text width="144" height="20" x="151" y="516" style="fill:black;" font-family="Arial" font-size="16px">ID_vehiculo</text>
   <rect width="144" height="20" x="146" y="522" style="fill:none;stroke:black;"/>
   <text width="144" height="20" x="151" y="536" style="fill:black;" font-family="Arial" font-size="16px">ID_seguro</text>
   <rect width="99" height="20" x="331" y="351" style="fill:#007;stroke:black;"/>
   <text width="99" height="20" x="336" y="365" style="fill:#fff;" font-family="Arial" font-size="16px"> ubicacion</text>
   <rect width="99" height="20" x="331" y="371" style="fill:#aea;stroke:black;"/>
   <text width="99" height="20" x="336" y="385" style="fill:black;" font-family="Arial" font-size="16px">ID_ubicacion</text>
   <rect width="99" height="20" x="331" y="391" style="fill:none;stroke:black;"/>
   <text width="99" height="20" x="336" y="405" style="fill:black;" font-family="Arial" font-size="16px">direccion</text>
   <rect width="90" height="20" x="512" y="39" style="fill:#007;stroke:black;"/>
   <text width="90" height="20" x="517" y="53" style="fill:#fff;" font-family="Arial" font-size="16px"> vehiculo</text>
   <rect width="90" height="20" x="512" y="59" style="fill:#aea;stroke:black;"/>
   <text width="90" height="20" x="517" y="73" style="fill:black;" font-family="Arial" font-size="16px">ID_vehiculo</text>
   <rect width="90" height="20" x="512" y="79" style="fill:none;stroke:black;"/>
   <text width="90" height="20" x="517" y="93" style="fill:black;" font-family="Arial" font-size="16px">matricula</text>
   <rect width="90" height="20" x="512" y="99" style="fill:none;stroke:black;"/>
   <text width="90" height="20" x="517" y="113" style="fill:black;" font-family="Arial" font-size="16px">marca</text>
   <rect width="90" height="20" x="512" y="119" style="fill:none;stroke:black;"/>
   <text width="90" height="20" x="517" y="133" style="fill:black;" font-family="Arial" font-size="16px">modelo</text>
   <rect width="90" height="20" x="512" y="139" style="fill:none;stroke:black;"/>
   <text width="90" height="20" x="517" y="153" style="fill:black;" font-family="Arial" font-size="16px">color</text>
</svg>
